<svg width="369" height="331" viewBox="0 0 369 331" fill="none" xmlns="http://www.w3.org/2000/svg">
<path d="M368.5 330.011L295 295.011L213 254.511C230.5 247.678 275.9 232.611 317.5 227.011L368.5 330.011ZM190.5 0.0110415C207 0.51103 212 9.0114 215.5 15.511L310.5 213.511C298 216.178 270.5 222.111 260.5 224.511C248 227.511 208 239.511 181 250.011C154 260.511 132 269.511 88.5 289.011C71.1667 297.011 31.4 315.311 11 324.511L0 329.511L167.5 15.511C169.667 10.1775 177.3 -0.388935 190.5 0.0110415ZM197.5 100.511C196.3 98.9115 195 99.8444 194.5 100.511L192.5 103.511L185 119.011L149 192.011L119 252.011C115.8 257.211 119.333 256.511 121.5 255.511L132 250.011C152 240.411 186 223.344 200.5 216.011C222.9 205.611 237.5 196.678 242 193.511L204 113.011L197.5 100.511Z" fill="url(#paint0_linear_121_10)"/>
<defs>
<linearGradient id="paint0_linear_121_10" x1="316.5" y1="238.011" x2="-0.500024" y2="330.511" gradientUnits="userSpaceOnUse">
<stop stop-color="#D0000C"/>
<stop offset="1" stop-color="#4B000B"/>
</linearGradient>
</defs>
</svg>
